# xmcd
#
# Track frame offsets:
#	182
#	8477
#	19535
#	38680
#	51260
#	58822
#	69002
#	78427
#	89497
#	106885
#	114767
#	127865
#
# Disc length: 1849 seconds
#
# Revision: 0
# Processed by: cddbd v1.5.2PL0 Copyright (c) Steve Scherf et al.
# Submitted via: EasyCDDAExtractor 11.0.3.1
#
DISCID=8207370c
DTITLE=Sons of the San Joaquin - Bound For The Rio Grande
DYEAR=1993
DGENRE=Country
TTITLE0=Bound For The Rio Grande
TTITLE1=The Boss Is Hangin' Out A Rainbow
TTITLE2=Wind
TTITLE3=Red River Valley
TTITLE4=Bunkhouse Bugle Boy
TTITLE5=Tumblin' Tumbleweeds
TTITLE6=Happy Cowboy
TTITLE7=So Long To The Red River Valley
TTITLE8=Blue Prairie
TTITLE9=When Payday Rolls Around
TTITLE10=Empty Saddles
TTITLE11=Way Out There
EXTD=
EXTT0=
EXTT1=
EXTT2=
EXTT3=
EXTT4=
EXTT5=
EXTT6=
EXTT7=
EXTT8=
EXTT9=
EXTT10=
EXTT11=
PLAYORDER=
